<?xml version="1.0" standalone="no"?>
<!DOCTYPE svg PUBLIC "-//W3C//DTD SVG 20010904//EN"
 "http://www.w3.org/TR/2001/REC-SVG-20010904/DTD/svg10.dtd">
<svg version="1.0" xmlns="http://www.w3.org/2000/svg"
 width="385.000000pt" height="384.000000pt" viewBox="0 0 385.000000 384.000000"
 preserveAspectRatio="xMidYMid meet">

<g transform="translate(0.000000,384.000000) scale(0.100000,-0.100000)"
fill="#000000" stroke="none">
<path d="M1000 3590 c-459 -121 -863 -226 -897 -236 l-63 -16 0 -1248 0 -1248
62 -40 c35 -22 137 -87 228 -145 91 -58 217 -139 280 -180 63 -41 198 -127
300 -192 102 -65 221 -141 265 -170 173 -110 182 -115 216 -115 33 0 32 2 -41
49 -131 84 -604 387 -922 590 -169 108 -308 198 -308 201 0 3 120 63 268 135
147 71 351 170 454 221 156 77 188 89 192 76 32 -101 63 -409 51 -485 l-7 -38
-57 7 c-65 7 -84 -6 -84 -58 0 -41 29 -64 98 -78 73 -15 140 -4 177 29 29 26
30 28 38 171 12 185 18 230 36 258 20 30 67 30 89 0 44 -63 123 -335 111 -382
-6 -26 -52 -46 -106 -46 -31 0 -44 -8 -59 -39 -18 -33 -5 -88 24 -107 67 -44
230 -21 291 40 61 61 68 105 70 434 1 249 3 296 17 309 8 8 46 25 83 37 55 18
74 30 93 57 l23 34 -7 -707 c-7 -624 -6 -708 8 -708 19 0 25 167 32 905 6 603
12 795 26 795 5 0 26 -7 47 -16 20 -10 44 -18 52 -20 8 -2 101 -33 206 -70
l193 -68 6 -35 c14 -80 115 -228 229 -341 34 -33 56 -63 56 -76 0 -12 -35 -71
-77 -131 -69 -96 -84 -111 -135 -136 -51 -24 -58 -31 -58 -57 0 -41 37 -49
110 -24 53 18 55 21 67 66 15 61 51 128 119 217 30 40 54 78 54 86 0 7 -12 23
-27 35 -46 36 -151 163 -146 177 11 29 45 8 139 -87 104 -106 154 -171 154
-202 0 -25 -22 -68 -125 -240 -47 -79 -95 -151 -107 -160 -13 -12 -37 -18 -68
-18 -58 0 -78 -18 -64 -58 13 -38 50 -54 108 -48 70 8 92 26 105 87 12 56 75
187 124 258 17 25 64 81 104 124 40 43 73 86 73 97 0 26 -33 47 -112 70 -60
19 -73 27 -139 98 -68 73 -149 184 -149 205 0 5 8 6 18 2 23 -10 841 -301 917
-327 33 -11 64 -24 68 -28 7 -6 -103 -100 -194 -165 -15 -11 -137 -105 -271
-210 -447 -349 -742 -578 -822 -639 -73 -56 -77 -61 -52 -64 21 -3 50 15 134
80 59 47 350 273 647 503 297 230 558 433 580 450 l39 32 -3 1244 c-1 684 -4
1246 -6 1247 -2 2 -102 17 -222 33 -120 15 -389 51 -598 78 -209 28 -532 71
-718 96 -186 25 -353 45 -370 44 -18 0 -408 -99 -867 -219z m1025 165 c66 -9
170 -22 230 -30 308 -40 500 -67 503 -70 2 -2 -16 -9 -39 -15 -24 -7 -65 -18
-91 -27 -45 -14 -48 -14 -77 8 -38 28 -134 37 -199 19 -57 -15 -120 -72 -128
-116 -6 -31 -11 -35 -63 -50 -31 -9 -135 -40 -231 -69 l-175 -52 -30 21 c-41
28 -141 34 -200 11 -48 -18 -115 -86 -115 -116 0 -14 -18 -23 -72 -39 -40 -12
-132 -39 -205 -61 -72 -21 -142 -39 -155 -39 -28 0 -835 167 -861 178 -13 5
25 19 125 45 456 118 597 155 873 227 61 16 153 40 205 54 114 29 389 102 480
126 36 10 74 16 85 14 11 -2 74 -11 140 -19z m1245 -165 c206 -27 380 -50 385
-50 13 -1 -47 -24 -525 -201 -223 -83 -562 -209 -753 -280 -191 -71 -360 -132
-375 -135 -32 -7 -960 181 -949 192 5 5 334 104 345 104 6 0 19 -15 30 -34 26
-44 70 -67 141 -73 68 -6 142 21 187 68 26 27 29 38 29 92 l0 62 220 67 220
66 28 -28 c38 -39 88 -53 161 -48 114 10 190 71 184 150 l-3 36 115 35 c74 23
128 34 150 31 19 -2 204 -27 410 -54z m-753 25 c20 -8 34 -18 30 -21 -8 -8
-300 -95 -304 -90 -8 7 16 52 40 74 53 49 163 66 234 37z m61 -73 c16 -110
-222 -179 -306 -89 l-21 23 152 46 c84 25 157 45 162 44 6 -2 11 -12 13 -24z
m1167 -1218 c4 -657 5 -1198 1 -1201 -3 -3 -79 20 -168 52 -90 31 -264 93
-388 137 -124 44 -277 98 -340 120 -63 22 -119 44 -123 48 -14 12 40 66 151
152 216 165 271 226 272 296 l0 23 37 -26 c21 -14 46 -25 56 -25 16 0 18 5 12
33 -23 108 -109 250 -185 302 -22 15 -40 29 -40 31 0 2 18 31 40 65 93 145
121 321 66 427 -39 75 -187 160 -336 191 -225 48 -486 5 -713 -118 -52 -28
-98 -51 -101 -51 -4 0 -6 21 -4 47 l3 47 205 76 c113 42 340 126 505 188 165
61 417 154 560 207 143 53 305 114 360 135 55 21 105 39 111 39 8 1 13 -328
19 -1195z m-2058 1041 c20 -8 34 -17 32 -19 -4 -5 -274 -86 -284 -86 -3 0 1
13 10 29 38 74 157 111 242 76z m79 -80 c8 -47 -20 -93 -76 -124 -99 -55 -244
-18 -250 63 -1 10 260 94 297 95 18 1 23 -6 29 -34z m-1426 -64 c239 -50 370
-78 1155 -241 242 -51 442 -93 445 -95 3 -2 4 -32 2 -68 l-4 -65 -50 -32 c-79
-52 -80 -83 -2 -56 26 9 49 16 51 16 2 0 3 -74 3 -165 l0 -165 -110 0 -110 0
0 64 c0 106 -25 212 -74 311 -24 50 -55 100 -69 113 l-24 22 -16 -117 c-14
-103 -22 -130 -63 -210 -25 -51 -52 -97 -60 -103 -10 -9 -35 -7 -101 8 -147
34 -263 45 -408 40 -74 -3 -135 -3 -135 1 0 3 -7 43 -15 88 -11 65 -13 109 -5
205 5 67 7 124 5 126 -9 10 -67 -43 -110 -101 -90 -119 -162 -296 -211 -519
-23 -104 -27 -148 -28 -283 -1 -149 1 -165 26 -233 61 -167 180 -255 392 -289
120 -19 136 -28 169 -93 l28 -55 -163 -80 c-211 -104 -757 -369 -769 -373 -5
-2 -9 475 -9 1197 0 937 3 1201 12 1201 7 0 118 -22 248 -49z m2399 -332 c142
-23 275 -87 321 -155 22 -32 25 -49 25 -118 0 -71 -4 -90 -32 -150 -18 -37
-47 -90 -64 -116 -28 -44 -34 -47 -58 -40 -14 5 -45 14 -68 20 -35 9 -43 15
-43 34 0 24 -24 41 -41 30 -5 -3 -9 -14 -9 -25 0 -28 -56 -27 -63 1 -3 12 -14
20 -27 20 -13 0 -24 -8 -27 -20 -6 -21 -17 -23 -75 -14 -31 6 -36 10 -35 31 4
56 -65 55 -71 -1 -3 -22 -8 -26 -38 -26 -22 0 -37 6 -40 15 -4 8 -13 15 -20
15 -8 0 -17 -7 -20 -15 -11 -28 -49 -18 -61 16 -14 36 -32 34 -51 -4 -17 -35
-30 -34 -34 1 -2 22 -9 28 -34 30 -29 3 -32 0 -38 -32 l-7 -36 -81 0 c-69 0
-79 2 -74 16 3 9 6 88 6 177 l0 162 83 46 c103 58 242 113 333 133 82 17 253
20 343 5z m-289 -597 c0 -4 -16 -29 -35 -56 -34 -49 -44 -76 -26 -76 12 0 73
69 97 108 17 30 22 32 76 32 37 0 58 -4 58 -11 0 -7 -18 -43 -40 -81 -41 -72
-47 -88 -31 -88 13 0 73 75 101 128 13 23 29 42 36 42 34 0 114 -25 114 -35 0
-17 -46 -84 -88 -127 -20 -21 -34 -40 -31 -42 16 -17 134 81 166 138 10 19 12
19 46 -3 71 -44 109 -114 93 -174 -4 -16 -48 -51 -143 -113 -163 -106 -295
-229 -332 -311 -14 -29 -30 -53 -37 -53 -6 0 -99 31 -205 69 l-194 69 -7 53
c-9 69 -31 130 -68 191 -32 52 -39 88 -16 88 26 0 66 -42 117 -123 l51 -82 -4
52 c-6 61 -43 142 -99 212 -42 53 -47 83 -15 89 25 5 119 -95 167 -176 34 -58
49 -68 49 -33 0 30 -58 136 -104 191 -50 59 -57 80 -27 80 24 0 66 -47 117
-131 28 -46 40 -59 42 -45 7 33 -20 105 -59 161 -31 45 -35 55 -21 58 30 8
252 7 252 -1z m-928 -328 c63 -32 75 -119 29 -199 -41 -72 -70 -94 -130 -104
-124 -20 -211 36 -211 134 0 91 109 162 188 121 37 -19 52 -44 52 -85 0 -54
-77 -83 -114 -42 -21 23 -15 36 26 57 27 14 29 17 15 31 -13 13 -19 13 -43 1
-62 -29 -64 -102 -5 -133 114 -59 215 72 130 170 -19 21 -47 39 -72 47 l-42
12 35 7 c44 9 107 1 142 -17z m-826 5 c3 -6 7 -45 8 -87 1 -48 5 -77 13 -79
17 -6 43 50 43 91 0 19 5 38 10 41 16 10 98 -62 130 -112 89 -140 -2 -253
-169 -213 -67 16 -162 78 -201 131 -63 87 -61 180 3 219 36 22 151 28 163 9z
m484 -120 c-19 -34 -7 -113 24 -157 32 -46 63 -63 131 -72 l50 -6 -30 -13
c-46 -19 -128 -25 -168 -12 -104 35 -116 144 -30 259 27 36 42 37 23 1z m841
-69 c14 -47 11 -53 -25 -44 -21 5 -26 12 -26 38 0 60 34 64 51 6z m-993 -191
c38 -13 48 -36 26 -60 -47 -52 -162 -16 -127 40 8 13 34 25 64 30 3 1 20 -4
37 -10z"/>
</g>
</svg>
